<?xml version="1.0" encoding="UTF-8" standalone="no"?>
<svg width="900px" height="262px" viewBox="0 0 900 262" version="1.1" xmlns="http://www.w3.org/2000/svg" xmlns:xlink="http://www.w3.org/1999/xlink">
    <!-- Generator: Sketch 49.3 (51167) - http://www.bohemiancoding.com/sketch -->
    <title>Text Logo-Colour-02</title>
    <desc>Created with Sketch.</desc>
    <defs></defs>
    <g id="Graphics" stroke="none" stroke-width="1" fill="none" fill-rule="evenodd">
        <g id="Text-Logo-Colour-02" fill-rule="nonzero">
            <polygon id="Shape" fill="#3B325D" points="824.1 259 824.1 245.8 856 245.8 856 181.2 827.4 181.2 827.4 168 870.3 168 870.3 245.8 900 245.8 900 259"></polygon>
            <path d="M667,235.8 C670.5,235.8 673.6,237.1 676.1,239.6 C678.6,242.1 679.9,245.1 679.9,248.7 C679.9,252.3 678.6,255.3 676.1,257.8 C673.6,260.3 670.6,261.6 667,261.6 C663.5,261.6 660.4,260.3 657.9,257.8 C655.4,255.3 654.1,252.3 654.1,248.7 C654.1,245.2 655.3,242.1 657.9,239.6 C660.4,237 663.4,235.8 667,235.8 Z" id="Shape" fill="#3B325D"></path>
            <path d="M351.4,199.7 C341.4,208.9 330.4,214.9 318.5,216 C306.6,217.1 295.5,212.4 286,201.8 C277.4,192.3 273.6,179.9 273.3,168.7 C273.4,149 279.7,139.7 288.9,133.6 C301.7,125.1 315.5,121.3 329.5,118.7 C340.1,116.8 350,118.1 359.5,125.2 C368.2,131.7 373.4,149.7 372,162.5 C369.9,180.3 361.3,190.7 351.4,199.7 Z M354.4,157.2 C352.8,147.6 347.6,141.5 340.4,139.4 C334.9,137.8 329.4,137.1 323.7,138.2 C315.7,139.8 308,142.2 301.2,148.6 C293.7,155.6 291.3,166.9 295.4,178.1 C300.4,192.1 309.1,197.5 319.8,198.3 C329.9,197.7 338.6,192.9 346.2,184 C352.2,177 356.3,168.3 354.4,157.2 Z" id="Shape" fill="#8BC5A7"></path>
            <path d="M542.1,44.9 L502.7,44.9 C499.7,44.9 498.3,46.4 498.3,49.3 L498.3,118.4 C498.3,121.4 499.8,122.8 502.7,122.8 L542.1,122.8 C550.7,122.8 557,121 561,117.4 C565,113.8 567,108 567,99.9 L567,68.6 C567,60.3 565,54.3 561,50.5 C557,46.7 550.7,44.9 542.1,44.9 Z M489.9,259 L455.7,259 C450.1,259 447.3,256.2 447.3,250.6 L447.3,9.1 C447.3,3.5 450.1,0.7 455.7,0.7 L551.3,0.7 C572.2,0.7 588.5,6.5 600.3,18 C612.1,29.5 618,45.7 618,66.6 L618,97.9 C618,128.2 606.1,148.3 582.2,158.2 L582.2,159.8 L625.2,249.4 C627.6,255.8 625.3,259 618.4,259 L585.9,259 C581.1,259 577.6,258.5 575.4,257.4 C573.3,256.3 571.5,254 570.2,250.6 L530,163.8 L503.1,163.8 C499.9,163.8 498.3,165.3 498.3,168.2 L498.3,250.6 C498.3,256.2 495.5,259 489.9,259 Z" id="Shape" fill="#3B325D"></path>
            <path d="M340.5,139.4 C347.7,141.5 352.9,147.6 354.5,157.2 C356.3,168.2 352.3,176.9 346.2,184 C338.6,192.9 329.9,197.7 319.8,198.3 C309.2,197.6 300.5,192.1 295.4,178.1 C291.4,166.9 293.7,155.6 301.2,148.6 C308,142.2 315.7,139.8 323.7,138.2 C329.5,137.1 334.9,137.8 340.5,139.4 Z" id="Shape" fill="#CBE3C5"></path>
            <path d="M875.8,140.9 C875.8,144.5 874.6,147.5 872,150 C869.5,152.5 866.5,153.8 862.9,153.8 C859.3,153.8 856.3,152.5 853.8,150 C851.3,147.5 850,144.5 850,140.9 C850,137.4 851.2,134.3 853.8,131.8 C856.3,129.3 859.3,128 862.9,128 C866.4,128 869.5,129.3 872,131.8 C874.5,134.3 875.8,137.4 875.8,140.9 Z" id="Shape" fill="#3B325D"></path>
            <path d="M383,87.5 C390,96 394.1,107.3 396,120.3 C397.6,131 398.8,141.7 399.3,152.5 C400.4,175.6 392.7,192.7 379.2,205.4 C365.3,218.4 350.9,230.2 334.9,237.7 C325.7,242.1 316.1,245 307.2,244.3 C293.7,244.6 281.5,240.5 269.2,237.7 C259.4,235.5 249.4,233.9 239.8,229.7 C234.6,227.4 229.8,224.2 226.1,218.4 C219.8,208.3 221.4,197.5 225.5,187.4 C230.7,174.4 234.9,160.9 237.4,146.5 C241.5,122.7 252.6,108.9 269,101.7 C280.5,96.7 292,91.5 302.1,81.8 C306.7,77.3 311.2,72.5 315.6,67.6 C325.1,57.2 335.9,55.8 347,59.8 C360.7,64.7 372.6,74.9 383,87.5 Z M277.9,119.1 C265.7,125.4 257.2,136.7 254.8,155.4 C253.7,163.5 253.6,171.8 252.8,180 C251.6,192.3 252.8,202.5 260.9,210.1 C264.1,213.1 267.5,215.1 270.9,217.2 C283.5,224.8 296.5,230.2 311.6,231.2 C314.9,230.6 319.3,229.9 323.7,228.8 C340.6,224.7 355.1,213.4 368.7,199.6 C373.8,194.4 378.6,188.4 381.7,180.3 C385.9,169.2 386.8,157.7 385.5,145.2 C381.6,106.7 357.1,87.2 333.2,95.4 C314.5,101.8 296,109.8 277.9,119.1 Z" id="Shape" fill="#49668B"></path>
            <path d="M368.7,199.6 C355.1,213.4 340.6,224.7 323.7,228.8 C319.3,229.9 314.8,230.6 311.6,231.2 C296.6,230.2 283.5,224.8 270.9,217.2 C267.5,215.1 264.1,213.1 260.9,210.1 C252.8,202.6 251.6,192.3 252.8,180 C253.6,171.9 253.7,163.6 254.8,155.4 C257.2,136.8 265.7,125.4 277.9,119.1 C296,109.8 314.5,101.8 333.3,95.3 C357.2,87.1 381.7,106.6 385.6,145.1 C386.9,157.6 386,169.1 381.8,180.2 C378.7,188.3 373.9,194.4 368.7,199.6 Z M359.4,125.2 C349.9,118.1 340,116.8 329.4,118.7 C315.3,121.3 301.6,125.1 288.8,133.6 C279.6,139.7 273.3,149 273.2,168.7 C273.5,179.9 277.4,192.3 285.9,201.8 C295.4,212.3 306.5,217.1 318.4,216 C330.3,214.9 341.3,208.9 351.3,199.7 C361.2,190.7 369.9,180.2 371.8,162.6 C373.3,149.7 368.1,131.8 359.4,125.2 Z" id="Shape" fill="#5E9A9D"></path>
            <path d="M42.6,259 L8.4,259 C2.8,259 0,256.2 0,250.6 L0,9.1 C0,3.5 2.8,0.7 8.4,0.7 L136.6,0.7 C141.9,0.7 144.6,3.5 144.6,9.1 L144.6,36.4 C144.6,42 141.9,44.8 136.6,44.8 L55.8,44.8 C52.6,44.8 51,46.3 51,49.2 L51,111.5 C51,114.7 52.6,116.3 55.8,116.3 L124.5,116.3 C130.1,116.3 132.9,119.1 132.9,124.7 L132.9,151.6 C132.9,157.5 130.1,160.4 124.5,160.4 L55.8,160.4 C52.6,160.4 51,161.9 51,164.8 L51,250.4 C51,256.2 48.2,259 42.6,259 Z" id="Shape" fill="#3B325D"></path>
            <path d="M396,120.3 C394.1,107.3 389.9,96 383,87.5 C372.5,74.8 360.7,64.7 347,59.8 C335.9,55.8 325.1,57.2 315.6,67.6 C311.2,72.5 306.7,77.4 302.1,81.8 C292,91.5 280.5,96.6 269,101.7 C252.6,108.8 241.5,122.6 237.4,146.5 C234.9,160.9 230.8,174.4 225.5,187.4 C221.5,197.5 219.8,208.3 226.1,218.4 C229.7,224.2 234.6,227.4 239.8,229.7 C249.4,234 259.3,235.5 269.2,237.7 C281.5,240.5 293.7,244.6 307.2,244.3 C316.1,245.1 325.7,242.1 334.9,237.7 C350.8,230.2 365.3,218.4 379.2,205.4 C392.7,192.7 400.4,175.6 399.3,152.5 C398.8,141.7 397.6,131 396,120.3 Z M419.3,129.8 C419.3,201.1 361.5,259 290.1,259 C218.9,259 161,201.2 161,129.8 C161,58.5 218.8,0.6 290.2,0.6 C361.5,0.7 419.3,58.5 419.3,129.8 Z" id="Shape" fill="#3B325D"></path>
            <path d="M772.8,188.3 C770.2,185.4 767,183.1 763.5,181.4 C759.9,179.8 756,178.9 751.8,178.9 C747.5,178.9 743.6,179.7 740.1,181.3 C736.5,182.9 733.5,185.1 730.8,188 C728.2,190.9 726.1,194.4 724.7,198.5 C723.2,202.6 722.5,207.1 722.5,212 L722.5,214.9 C722.5,225.3 725.2,233.4 730.7,239.2 C736.2,245 743.2,247.9 751.9,247.9 C756.2,247.9 760.1,247.1 763.7,245.5 C767.3,243.9 770.4,241.6 773,238.7 C775.6,235.8 777.6,232.3 779.1,228.2 C780.6,224.1 781.3,219.5 781.3,214.5 L781.3,212.3 C781.3,207.4 780.6,202.9 779.1,198.8 C777.5,194.7 775.4,191.2 772.8,188.3 Z M766.7,257 C761.5,259.9 756,261.4 750.3,261.4 C744.3,261.4 738.7,260.4 733.6,258.4 C728.5,256.4 724,253.4 720.1,249.4 C716.3,245.4 713.2,240.6 711,234.8 C708.8,229.1 707.7,222.4 707.7,214.8 L707.7,211.9 C707.7,204.4 708.8,197.8 711,192.1 C713.2,186.3 716.2,181.5 720.1,177.5 C724,173.5 728.5,170.5 733.6,168.4 C738.7,166.3 744.2,165.3 749.9,165.3 C756.1,165.3 761.8,166.7 766.9,169.4 C772,172.2 776,176.4 778.9,182.1 L781.1,182.1 L781.1,167.8 L795.4,167.8 L795.4,240.1 C795.4,243.8 797.1,245.6 800.4,245.6 L805,245.6 L805,258.8 L795.3,258.8 C791.2,258.8 787.8,257.5 785.1,254.8 C782.5,252.1 781.2,248.7 781.2,244.5 L781.2,243.4 L779,243.4 C776,249.6 771.9,254.1 766.7,257 Z" id="Shape" fill="#3B325D"></path>
        </g>
    </g>
</svg>